<svg width="24" height="24" viewBox="0 0 24 24" fill="none" xmlns="http://www.w3.org/2000/svg">
<path d="M13.3333 14.3984C13.3333 13.6844 13.3333 13.3274 13.545 13.0851C13.7568 12.8428 14.1106 12.7951 14.8182 12.6995L18.0563 12.2624C18.9613 12.1402 19.4138 12.0791 19.7069 12.3353C19.9999 12.5914 19.9999 13.048 19.9999 13.9613V20.2857C19.9999 21.0938 19.9999 21.4979 19.7489 21.7489C19.4978 22 19.0938 22 18.2856 22H15.0475C14.2394 22 13.8354 22 13.5843 21.7489C13.3333 21.4979 13.3333 21.0938 13.3333 20.2857L13.3333 14.3984Z" fill="#FF4F4C"/>
<path d="M4.6665 5.11281C4.6665 4.48154 4.6665 4.1659 4.84313 3.93526C5.01976 3.70462 5.32448 3.62235 5.93393 3.45779L9.17203 2.58351C10.1648 2.31546 10.6612 2.18144 10.9972 2.43875C11.3332 2.69606 11.3332 3.21022 11.3332 4.23853V20.2857C11.3332 21.0938 11.3332 21.4979 11.0821 21.7489C10.8311 22 10.427 22 9.61888 22H6.38079C5.57267 22 5.16861 22 4.91756 21.7489C4.6665 21.4979 4.6665 21.0938 4.6665 20.2857L4.6665 5.11281Z" fill="#FF4F4C"/>
<path d="M16.1079 16.4579C16.1079 15.7251 16.1079 15.3587 16.3276 15.1143C16.5473 14.8699 16.9117 14.831 17.6404 14.7533L20.7794 14.4184C21.6646 14.324 22.1073 14.2768 22.3914 14.5322C22.6755 14.7876 22.6755 15.2328 22.6755 16.1231V20.2857C22.6755 21.0938 22.6755 21.4979 22.4244 21.7489C22.1734 22 21.7693 22 20.9612 22H17.8222C17.0141 22 16.61 22 16.359 21.7489C16.1079 21.4979 16.1079 21.0938 16.1079 20.2857L16.1079 16.4579Z" fill="#FB9F9D"/>
<path d="M9.05396 6.54681C9.05396 5.85324 9.05396 5.50645 9.25708 5.26667C9.46021 5.02689 9.80228 4.96987 10.4864 4.85585L13.6254 4.33269C14.552 4.17825 15.0153 4.10104 15.3184 4.35781C15.6215 4.61458 15.6215 5.08427 15.6215 6.02365V20.2857C15.6215 21.0938 15.6215 21.4979 15.3705 21.7489C15.1194 22 14.7154 22 13.9072 22H10.7682C9.96012 22 9.55606 22 9.30501 21.7489C9.05396 21.4979 9.05396 21.0938 9.05396 20.2857V6.54681Z" fill="#FB9F9D"/>
<path d="M2 12.3846C2 11.6911 2 11.3443 2.20313 11.1045C2.40625 10.8647 2.74832 10.8077 3.43246 10.6937L6.57145 10.1705C7.49805 10.0161 7.96135 9.93887 8.26446 10.1956C8.56757 10.4524 8.56757 10.9221 8.56757 11.8615V20.2857C8.56757 21.0938 8.56757 21.4979 8.31652 21.7489C8.06547 22 7.6614 22 6.85328 22H3.71429C2.90616 22 2.5021 22 2.25105 21.7489C2 21.4979 2 21.0938 2 20.2857L2 12.3846Z" fill="#FB9F9D"/>
</svg>
