<svg width="32" height="25" viewBox="0 0 32 25" fill="none" xmlns="http://www.w3.org/2000/svg">
<path fill-rule="evenodd" clip-rule="evenodd" d="M16 0C12.0495 0 8.84706 3.23233 8.84706 7.21968V17.4792C8.84706 18.4237 8.08866 19.1891 7.15294 19.1891C6.2173 19.1891 5.45882 18.4237 5.45882 17.4792V15.6488C5.45882 14.1414 4.23682 12.9194 2.72941 12.9194V12.9194C1.222 12.9194 0 14.1414 0 15.6488V17.6692C0 21.6566 3.20248 24.8889 7.15294 24.8889C11.1034 24.8889 14.3059 21.6566 14.3059 17.6692V7.21968C14.3059 6.27523 15.0643 5.50975 16 5.50975C16.9357 5.50975 17.6941 6.27523 17.6941 7.21968V7.75971C17.6941 8.71536 18.2153 9.59494 19.0536 10.0539V10.0539C19.7876 10.4557 20.6696 10.4821 21.4263 10.1248L21.5278 10.0769C22.52 9.60842 23.1529 8.60964 23.1529 7.51241V7.21968C23.1529 3.23233 19.9505 0 16 0ZM19.4994 13.8496C18.6568 13.4598 17.6941 14.0751 17.6941 15.0035V17.6692C17.6941 21.6566 20.8966 24.8889 24.8471 24.8889C28.7976 24.8889 32 21.6566 32 17.6692V15.8388C32 14.3314 30.778 13.1094 29.2706 13.1094V13.1094C27.7632 13.1094 26.5412 14.3314 26.5412 15.8388V17.6692C26.5412 18.6137 25.7828 19.3791 24.8471 19.3791C23.9113 19.3791 23.1529 18.6137 23.1529 17.6692V15.6339C23.1529 14.3418 21.8911 13.4265 20.6628 13.8276L20.4279 13.9043C20.1226 14.004 19.7909 13.9844 19.4994 13.8496V13.8496Z" fill="#FF4F4C"/>
</svg>
