<svg width="24" height="24" viewBox="0 0 24 24" fill="none" xmlns="http://www.w3.org/2000/svg">
<path d="M2 11.7709C2 11.1281 2 10.8067 2.18826 10.5845C2.37651 10.3622 2.69354 10.3094 3.3276 10.2037L6.23681 9.71885C7.09558 9.57573 7.52497 9.50416 7.80589 9.74214C8.08681 9.98011 8.08681 10.4154 8.08681 11.286V19.0936C8.08681 19.8426 8.08681 20.217 7.85413 20.4497C7.62146 20.6824 7.24697 20.6824 6.49801 20.6824H3.58879C2.83983 20.6824 2.46535 20.6824 2.23267 20.4497C2 20.217 2 19.8426 2 19.0936L2 11.7709Z" fill="#FB9F9D"/>
<path d="M15.0752 15.546C15.0752 14.8668 15.0752 14.5272 15.2788 14.3007C15.4825 14.0742 15.8201 14.0382 16.4955 13.9661L19.4047 13.6558C20.2252 13.5683 20.6354 13.5246 20.8987 13.7613C21.162 13.998 21.162 14.4105 21.162 15.2357V19.0936C21.162 19.8425 21.162 20.217 20.9293 20.4497C20.6967 20.6824 20.3222 20.6824 19.5732 20.6824H16.664C15.915 20.6824 15.5405 20.6824 15.3079 20.4497C15.0752 20.217 15.0752 19.8425 15.0752 19.0936L15.0752 15.546Z" fill="#FB9F9D"/>
<path d="M8.5376 6.36038C8.5376 5.71758 8.5376 5.39617 8.72585 5.17394C8.91411 4.95172 9.23114 4.89888 9.8652 4.7932L12.7744 4.30833C13.6332 4.1652 14.0626 4.09364 14.3435 4.33161C14.6244 4.56959 14.6244 5.0049 14.6244 5.87551V19.0936C14.6244 19.8425 14.6244 20.217 14.3917 20.4497C14.1591 20.6824 13.7846 20.6824 13.0356 20.6824H10.1264C9.37743 20.6824 9.00295 20.6824 8.77027 20.4497C8.5376 20.217 8.5376 19.8425 8.5376 19.0936V6.36038Z" fill="#FF4F4C"/>
</svg>
